<svg xmlns="http://www.w3.org/2000/svg" width="29.414" height="29.414" viewBox="0 0 29.414 29.414"><defs><style>.a{fill:#fff;}</style></defs><g transform="translate(-4)"><g transform="translate(4)"><path class="a" d="M25.967,0H3.447A3.451,3.451,0,0,0,0,3.447v22.52a3.451,3.451,0,0,0,3.447,3.447h22.52a3.451,3.451,0,0,0,3.447-3.447V3.447A3.451,3.451,0,0,0,25.967,0Zm1.149,25.967a1.15,1.15,0,0,1-1.149,1.149H19.418V17.752h3.55l.587-3.562H19.418V11.72A1.694,1.694,0,0,1,21.141,10H23.5V6.434H21.141a5.284,5.284,0,0,0-5.284,5.3v2.46H12.409v3.562h3.448v9.364H3.447A1.15,1.15,0,0,1,2.3,25.967V3.447A1.15,1.15,0,0,1,3.447,2.3h22.52a1.15,1.15,0,0,1,1.149,1.149Z"/></g></g></svg>