<svg xmlns="http://www.w3.org/2000/svg" width="28" height="28" viewBox="0 0 28 28"><path d="M25.785,24.277a3.035,3.035,0,1,0-1.641,0v2.082H20.717V4.375h-4.56V0H14.682V1.551H13.318V0H11.843V4.375H7.283V26.359H3.855V24.386a3.035,3.035,0,1,0-1.641,0v1.973H0V28H28V26.359H25.785ZM1.641,21.465a1.395,1.395,0,1,1,1.395,1.395A1.4,1.4,0,0,1,1.641,21.465Zm11.678-18.7h1.363V4.375H13.318Zm2.258,23.6H12.423V22.4h3.154Zm3.5,0H17.217v-5.6H10.783v5.6H8.923V6.016H19.077Zm4.494-5a1.395,1.395,0,1,1,1.395,1.395A1.4,1.4,0,0,1,23.57,21.355Z"/><g transform="translate(10.846 8.367)"><rect width="1.641" height="2.333"/></g><g transform="translate(15.513 8.367)"><rect width="1.641" height="2.333"/></g><g transform="translate(10.846 12.451)"><rect width="1.641" height="2.333"/></g><g transform="translate(15.513 12.451)"><rect width="1.641" height="2.333"/></g><g transform="translate(10.846 16.534)"><rect width="1.641" height="2.333"/></g><g transform="translate(15.513 16.534)"><rect width="1.641" height="2.333"/></g></svg>