<svg xmlns="http://www.w3.org/2000/svg" width="28.125" height="21.404" viewBox="0 0 28.125 21.404"><g transform="translate(0 -57.75)"><g transform="translate(0 57.75)"><path d="M24.692,57.75H3.439A3.442,3.442,0,0,0,0,61.189V75.714a3.442,3.442,0,0,0,3.439,3.439H24.686a3.442,3.442,0,0,0,3.439-3.439V61.2A3.439,3.439,0,0,0,24.692,57.75ZM26.56,75.714a1.87,1.87,0,0,1-1.868,1.868H3.439a1.87,1.87,0,0,1-1.868-1.868V61.2a1.87,1.87,0,0,1,1.868-1.868H24.686A1.87,1.87,0,0,1,26.554,61.2V75.714Z" transform="translate(0 -57.75)"/><path d="M70.245,116.447l6.879-6.169a.787.787,0,1,0-1.053-1.17l-9.486,8.514-1.851-1.653c-.006-.006-.012-.012-.012-.017a1.162,1.162,0,0,0-.128-.111l-7.53-6.739a.787.787,0,0,0-1.047,1.176l6.96,6.221-6.931,6.489a.789.789,0,0,0-.035,1.112.8.8,0,0,0,.576.25.787.787,0,0,0,.535-.21l7.036-6.582,1.909,1.705a.784.784,0,0,0,1.047-.006l1.961-1.757,6.995,6.646a.788.788,0,0,0,1.112-.029.789.789,0,0,0-.029-1.111Z" transform="translate(-52.508 -105.926)"/></g></g></svg>