<svg xmlns="http://www.w3.org/2000/svg" width="28.45" height="25.361" viewBox="0 0 28.45 25.361"><defs><style>.a{fill:#fff;}</style></defs><g transform="translate(0.001 -27.797)"><g transform="translate(-0.001 27.798)"><g transform="translate(0 0)"><path class="a" d="M28.147,37.814,14.661,27.94a.739.739,0,0,0-.873,0L.3,37.814a.739.739,0,1,0,.873,1.193l13.049-9.554,13.049,9.554a.739.739,0,0,0,.873-1.193Z" transform="translate(0.001 -27.798)"/></g></g><g transform="translate(3.136 39.174)"><g transform="translate(0 0)"><path class="a" d="M77.889,232.543a.739.739,0,0,0-.739.739v11.766H71.236v-6.423a3.7,3.7,0,0,0-7.393,0v6.423H57.93V233.282a.739.739,0,1,0-1.478,0v12.505a.739.739,0,0,0,.739.739h7.392a.739.739,0,0,0,.736-.682.557.557,0,0,0,0-.058v-7.162a2.218,2.218,0,0,1,4.436,0v7.162a.542.542,0,0,0,0,.057.739.739,0,0,0,.736.682h7.392a.739.739,0,0,0,.739-.739V233.282A.739.739,0,0,0,77.889,232.543Z" transform="translate(-56.452 -232.543)"/></g></g></g></svg>