<svg xmlns="http://www.w3.org/2000/svg" width="17.721" height="25.204" viewBox="0 0 17.721 25.204"><g transform="translate(-76)"><g transform="translate(76)"><g transform="translate(0)"><path d="M84.861,0a8.862,8.862,0,0,0-7.538,13.52l7.034,11.335a.738.738,0,0,0,.627.349h.006a.738.738,0,0,0,.628-.359L92.472,13.4A8.863,8.863,0,0,0,84.861,0ZM91.2,12.642l-6.232,10.4-6.395-10.3a7.389,7.389,0,1,1,12.626-.1Z" transform="translate(-76)"/></g></g><g transform="translate(80.43 4.43)"><g transform="translate(0)"><path d="M170.43,90a4.43,4.43,0,1,0,4.43,4.43A4.435,4.435,0,0,0,170.43,90Zm0,7.394a2.963,2.963,0,1,1,2.958-2.963A2.966,2.966,0,0,1,170.43,97.394Z" transform="translate(-166 -90)"/></g></g></g></svg>