<svg xmlns="http://www.w3.org/2000/svg" width="31.304" height="24" viewBox="0 0 31.304 24"><path d="M27.652,8.469V2.609A2.612,2.612,0,0,0,25.044,0H6.261A2.612,2.612,0,0,0,3.652,2.609v5.86A4.7,4.7,0,0,0,0,13.044v7.3a.522.522,0,0,0,.522.522h.522v2.609A.522.522,0,0,0,1.565,24H3.652a.522.522,0,0,0,.522-.522V20.87H27.13v2.609a.522.522,0,0,0,.522.522h2.087a.522.522,0,0,0,.522-.522V20.87h.522a.522.522,0,0,0,.522-.522v-7.3A4.7,4.7,0,0,0,27.652,8.469ZM4.7,2.609A1.565,1.565,0,0,1,6.261,1.043H25.044a1.565,1.565,0,0,1,1.565,1.565V8.348H24.522V5.739a1.565,1.565,0,0,0-1.565-1.565H17.739a1.565,1.565,0,0,0-1.565,1.565V8.348H15.13V5.739a1.565,1.565,0,0,0-1.565-1.565H8.348A1.565,1.565,0,0,0,6.783,5.739V8.348H4.7ZM23.478,8.348H17.217V5.739a.522.522,0,0,1,.522-.522h5.217a.522.522,0,0,1,.522.522Zm-9.391,0H7.826V5.739a.522.522,0,0,1,.522-.522h5.217a.522.522,0,0,1,.522.522Zm-13.044,4.7A3.656,3.656,0,0,1,4.7,9.391H26.609a3.656,3.656,0,0,1,3.652,3.652v4.7H1.043ZM3.13,22.957H2.087V20.87H3.13Zm26.087,0H28.174V20.87h1.043Zm1.043-3.13H1.043V18.783H30.261Zm0,0"/><path d="M377.565,248h-1.043a.522.522,0,0,0,0,1.043h1.043a.522.522,0,0,0,0-1.043Zm0,0" transform="translate(-351.478 -231.826)"/><path d="M418.087,224a.522.522,0,0,0-.522.522v1.043h-1.043a.522.522,0,0,0,0,1.043h1.565a.522.522,0,0,0,.522-.522v-1.565A.522.522,0,0,0,418.087,224Zm0,0" transform="translate(-388.869 -209.391)"/><path d="M27.13,152A3.134,3.134,0,0,0,24,155.13v3.652a.522.522,0,0,0,1.043,0V155.13a2.087,2.087,0,0,1,2.087-2.087.522.522,0,0,0,0-1.043Zm0,0" transform="translate(-22.435 -142.087)"/></svg>